HIERARCHY
ROOT hip
{
	OFFSET 0.000000 0.000000 0.000000 
	CHANNELS 6 Xposition Yposition Zposition Xrotation Zrotation Yrotation
	JOINT abdomen
	{
		OFFSET 0.000000 3.402643 0.000000 
		CHANNELS 3 Xrotation Zrotation Yrotation
		JOINT chest
		{
			OFFSET 0.000000 8.438565 -0.680529 
			CHANNELS 3 Xrotation Zrotation Yrotation
			JOINT neck
			{
				OFFSET 0.000000 10.207942 -0.272212 
				CHANNELS 3 Xrotation Zrotation Yrotation
				JOINT head
				{
					OFFSET 0.000000 3.130431 0.000000 
					CHANNELS 3 Xrotation Zrotation Yrotation
					End Site
					{
						OFFSET 0.000000 3.130435 0.000000 
					}
				}
			}
			JOINT lCollar
			{
				OFFSET 3.470700 6.669187 -0.816635 
				CHANNELS 3 Yrotation Zrotation Xrotation
				JOINT lShldr
				{
					OFFSET 3.198488 0.000000 0.000000 
					CHANNELS 3 Zrotation Yrotation Xrotation
					JOINT lForeArm
					{
						OFFSET 10.139888 0.000000 0.000000 
						CHANNELS 3 Yrotation Zrotation Xrotation
						JOINT lHand
						{
							OFFSET 8.370511 0.000000 0.000000 
							CHANNELS 3 Zrotation Yrotation Xrotation
							End Site
							{
								OFFSET 4.083176 0.000000 0.000000 
							}
						}
					}
				}
			}
			JOINT rCollar
			{
				OFFSET -3.470700 6.669187 -0.816635 
				CHANNELS 3 Yrotation Zrotation Xrotation
				JOINT rShldr
				{
					OFFSET -3.198488 0.000000 0.000000 
					CHANNELS 3 Zrotation Yrotation Xrotation
					JOINT rForeArm
					{
						OFFSET -10.139888 0.000000 0.000000 
						CHANNELS 3 Yrotation Zrotation Xrotation
						JOINT rHand
						{
							OFFSET -8.370511 0.000000 0.000000 
							CHANNELS 3 Zrotation Yrotation Xrotation
							End Site
							{
								OFFSET -4.083176 0.000000 0.000000 
							}
						}
					}
				}
			}
		}
	}
	JOINT lThigh
	{
		OFFSET 5.308129 -1.633274 1.361059 
		CHANNELS 3 Xrotation Zrotation Yrotation
		JOINT lShin
		{
			OFFSET -2.041588 -20.007561 0.000000 
			CHANNELS 3 Xrotation Zrotation Yrotation
			JOINT lFoot
			{
				OFFSET 0.000000 -19.190928 -1.224953 
				CHANNELS 3 Xrotation Yrotation Zrotation
				End Site
				{
					OFFSET 0.000000 -2.449906 4.627600 
				}
			}
		}
	}
	JOINT rThigh
	{
		OFFSET -5.308129 -1.633274 1.361059 
		CHANNELS 3 Xrotation Zrotation Yrotation
		JOINT rShin
		{
			OFFSET 2.041588 -20.007561 0.000000 
			CHANNELS 3 Xrotation Zrotation Yrotation
			JOINT rFoot
			{
				OFFSET 0.000000 -19.190928 -1.224953 
				CHANNELS 3 Xrotation Yrotation Zrotation
				End Site
				{
					OFFSET 0.000000 -2.449906 4.627600 
				}
			}
		}
	}
}
MOTION
Frames: 20
Frame Time: 0.016667
9.591651 44.814491 17.853956 21.827101 -5.042520 -6.011110 -12.272200 -3.829990 1.593390 19.978800 -4.394310 0.698445 35.839294 -18.436729 -0.984895 22.281401 1.057170 2.680370 2.000000 -2.000000 0.000000 93.209999 -133.324997 32.142300 38.633202 -0.321646 0.085414 0.048417 0.024881 -124.450996 -2.000000 2.000000 0.000000 88.971298 6.060830 -166.059998 -104.199997 0.183707 0.113317 -0.087418 0.092953 -168.151993 -31.750059 6.490310 -12.542257 24.190426 2.190651 2.098427 -14.926042 8.144152 3.850941 -20.012669 3.353192 4.049303 -1.514642 0.476803 -0.600471 4.631212 -7.141015 -2.128105 
9.555916 44.802280 17.850475 21.785900 -5.261880 -5.546580 -12.144700 -3.743110 1.298490 20.066999 -4.199070 0.563098 35.590572 -18.891136 -0.762334 22.251499 0.983214 2.772570 2.000000 -2.000000 0.000000 93.335701 -133.128998 31.810699 38.691799 -0.321559 0.085524 0.048512 0.025308 -124.294998 -2.000000 2.000000 0.000000 88.433899 3.961540 -166.201004 -106.367996 0.179073 0.112051 -0.087037 0.092321 -167.888000 -31.927999 6.529810 -12.722772 24.387899 2.186737 2.122916 -15.089646 7.812487 3.741553 -19.939569 3.475167 3.568415 -1.386036 0.510849 -0.674170 4.335629 -7.100286 -2.238421 
9.520485 44.781971 17.834297 21.689100 -5.556190 -5.261970 -12.007700 -3.703210 1.043350 20.165001 -4.111230 0.447927 35.412422 -19.129200 -0.584838 22.212400 0.974242 2.837210 2.000000 -2.000000 0.000000 93.754303 -132.912994 31.440001 38.760201 -0.321457 0.085651 0.048584 0.025628 -124.178001 -2.000000 2.000000 0.000000 87.798798 2.925750 -165.929993 -107.695999 0.176260 0.111189 -0.087291 0.092742 -168.063995 -32.048294 6.723025 -12.812879 24.621601 2.208939 2.132411 -15.245955 7.521202 3.641039 -19.797672 3.692963 3.228968 -1.369734 0.547424 -0.723495 4.166441 -7.105532 -2.313198 
9.496556 44.771442 17.813515 21.558500 -5.734000 -5.131990 -11.940100 -3.759760 0.863077 20.165001 -4.130760 0.360170 35.331818 -19.284361 -0.468562 22.153601 0.946855 2.895450 2.000000 -2.000000 0.000000 94.319702 -132.755997 31.196199 38.769901 -0.321442 0.085669 0.048590 0.025655 -124.167999 -2.000000 2.000000 0.000000 87.202797 3.197790 -165.324005 -108.008003 0.175601 0.110977 -0.087917 0.093770 -168.494003 -32.088985 6.851583 -12.773406 24.807764 2.213752 2.139356 -15.295385 7.334630 3.587793 -19.593739 3.805732 3.044683 -1.521425 0.639270 -0.742588 4.152205 -7.089092 -2.380131 
9.482907 44.764885 17.781275 21.421200 -5.739380 -5.196450 -11.931900 -3.866460 0.825686 20.086599 -4.169780 0.346585 35.323662 -19.273079 -0.470619 22.094900 0.938016 2.901220 2.000000 -2.000000 0.000000 94.749001 -132.697006 31.079100 38.828499 -0.321355 0.085778 0.048542 0.025441 -124.246002 -2.000000 2.000000 0.000000 86.714302 4.768430 -164.617004 -107.167999 0.177375 0.111539 -0.087674 0.093373 -168.328003 -32.026672 6.906693 -12.544832 24.963682 2.219263 2.127647 -15.326427 7.231687 3.545191 -19.559757 3.841096 3.093276 -1.366833 0.576850 -0.753502 4.095516 -7.069092 -2.367175 
9.474674 44.755379 17.734991 21.260099 -5.636270 -5.490080 -11.942700 -3.945950 0.971411 19.988701 -4.199010 0.412568 35.386097 -19.104979 -0.552028 22.046400 0.975526 2.863680 2.000000 -2.000000 0.000000 94.963501 -132.628998 31.040199 38.916401 -0.321223 0.085941 0.048494 0.025228 -124.323997 -2.000000 2.000000 0.000000 86.470398 7.364620 -163.977005 -105.313004 0.181322 0.112688 -0.086686 0.091734 -167.643997 -31.954634 6.951523 -12.186814 25.236259 2.245410 2.137392 -15.475890 7.167818 3.544044 -19.536980 3.845156 3.375992 -1.258805 0.531683 -0.747540 4.141347 -7.034760 -2.290211 
9.466932 44.745987 17.682192 21.059799 -5.534340 -6.043240 -11.962700 -4.007920 1.301710 19.861300 -4.277030 0.569291 35.566967 -18.907053 -0.701401 22.046700 1.012670 2.807410 2.000000 -2.000000 0.000000 94.924500 -132.561005 31.186800 38.965199 -0.321150 0.086032 0.048512 0.025308 -124.294998 -2.000000 2.000000 0.000000 86.627602 10.674100 -163.500000 -102.070999 0.188301 0.114388 -0.085938 0.090461 -167.117004 -31.727932 7.096195 -11.785029 25.450901 2.261231 2.146206 -15.620720 7.294645 3.603084 -19.431875 3.891065 3.915551 -1.294627 0.523855 -0.729329 4.247489 -7.007093 -2.254057 
9.462002 44.743168 17.623102 20.938200 -5.429230 -6.761710 -12.059700 -4.065690 1.755900 19.714300 -4.452650 0.787862 35.831516 -18.643692 -0.852257 22.105801 1.077180 2.741790 2.000000 -2.000000 0.000000 94.827499 -132.552002 31.557899 39.023800 -0.321062 0.086140 0.048535 0.025414 -124.255997 -2.000000 2.000000 0.000000 87.264000 14.403800 -163.149994 -97.978897 0.197227 0.115966 -0.085965 0.090508 -167.136002 -31.544798 7.308704 -11.379693 25.637917 2.260252 2.161808 -15.770156 7.470520 3.700235 -19.443722 3.995891 4.590220 -1.327634 0.522382 -0.711114 4.409614 -7.035108 -2.190295 
9.459193 44.744843 17.564575 20.931601 -5.246810 -7.511610 -12.224000 -4.130960 2.247810 19.527800 -4.686750 1.031060 36.117294 -18.373857 -0.985873 22.194599 1.178510 2.689060 2.000000 -2.000000 0.000000 94.750504 -132.542999 32.182899 39.033600 -0.321047 0.086158 0.048488 0.025201 -124.334000 -2.000000 2.000000 0.000000 88.379898 18.270700 -163.050003 -93.223099 0.207711 0.116993 -0.085745 0.090130 -166.979996 -31.496428 7.466260 -10.909740 25.822838 2.280219 2.172093 -15.886323 7.710598 3.819934 -19.603376 4.078308 5.300190 -1.327507 0.499047 -0.681102 4.618698 -6.976444 -2.105549 
9.453250 44.736870 17.514135 20.923800 -5.018780 -8.263710 -12.396800 -4.195790 2.741850 19.302099 -4.901170 1.268920 36.338211 -18.231966 -1.108615 22.282900 1.224090 2.647570 2.000000 -2.000000 0.000000 94.810501 -132.516006 32.973999 39.131302 -0.320900 0.086339 0.048340 0.024533 -124.578003 -2.000000 2.000000 0.000000 89.867798 22.031000 -163.255997 -88.516098 0.218389 0.136679 -0.085025 0.088872 -166.462997 -31.339798 7.592913 -10.395276 25.920460 2.289302 2.181942 -15.994712 8.008746 3.949277 -19.715759 4.066720 6.045175 -1.419135 0.505502 -0.675474 4.856138 -6.915907 -2.017331 
9.442668 44.724274 17.462570 20.918100 -4.845460 -8.949630 -12.558500 -4.226550 3.188530 19.105499 -5.115560 1.496090 36.437832 -18.248394 -1.208483 22.331400 1.186560 2.616810 2.000000 -2.000000 0.000000 95.095398 -132.507996 33.823601 39.375401 -0.320532 0.086790 0.048014 0.023009 -125.135002 -2.000000 2.000000 0.000000 91.522301 25.391500 -163.746002 -84.639198 0.227622 0.136126 -0.084743 0.088372 -166.257996 -31.308310 7.748492 -9.904149 26.203623 2.306044 2.189737 -16.111626 8.228929 4.037270 -19.827692 4.122723 6.694517 -1.490076 0.513387 -0.649392 5.035697 -6.856288 -1.955380 
9.427378 44.715794 17.407301 20.956400 -4.816840 -9.508070 -12.699200 -4.210610 3.594910 18.957899 -5.329970 1.700640 36.496666 -18.376974 -1.407313 22.349701 1.047340 2.561370 2.000000 -2.000000 0.000000 95.399803 -132.440994 34.780800 39.482800 -0.320369 0.086988 0.047629 0.021106 -125.828003 -2.000000 2.000000 0.000000 93.118202 28.147100 -164.466995 -81.768097 0.234424 0.135315 -0.085066 0.088943 -166.492004 -31.326345 8.032263 -9.422634 26.369661 2.317149 2.198775 -16.096334 8.305777 4.101152 -19.973995 4.293627 7.191142 -1.522923 0.537662 -0.651514 5.182229 -6.818818 -1.923199 
9.403193 44.711681 17.356409 21.131800 -4.783840 -9.863860 -12.879600 -4.192560 3.925090 18.849501 -5.505380 1.862290 36.589058 -18.491217 -1.687834 22.377600 0.861730 2.480840 2.000000 -2.000000 0.000000 95.606598 -132.335999 35.808899 39.394901 -0.320502 0.086826 0.047322 0.019494 -126.414001 -2.000000 2.000000 0.000000 94.292503 29.350599 -165.479996 -81.143097 0.235899 0.135094 -0.085910 0.090414 -167.097000 -31.544710 8.255155 -9.005052 26.506498 2.325998 2.207806 -16.029484 8.244098 4.071741 -20.205048 4.430896 7.487803 -1.598913 0.584578 -0.666057 5.387654 -6.768251 -1.893347 
9.363144 44.711433 17.313725 21.315800 -4.714160 -9.952210 -13.052600 -4.172200 4.096180 18.741600 -5.524590 1.941570 36.790878 -18.454948 -1.921968 22.445101 0.731535 2.428880 2.000000 -2.000000 0.000000 95.754700 -132.268997 36.678200 39.238701 -0.320738 0.086538 0.047112 0.018337 -126.834000 -2.000000 2.000000 0.000000 94.702904 29.157000 -166.212997 -81.904800 0.234101 0.135362 -0.086283 0.091051 -167.360992 -31.784443 8.341506 -8.779716 26.498539 2.307986 2.213655 -15.916460 8.115545 4.034110 -20.490118 4.484379 7.544590 -1.492694 0.559927 -0.680236 5.425897 -6.767535 -1.880299 
9.318782 44.707188 17.309792 21.227699 -4.716970 -9.876630 -13.120100 -4.135380 4.114100 18.614500 -5.377790 1.958630 37.115765 -18.191040 -2.070644 22.581900 0.749169 2.397780 2.000000 -2.000000 0.000000 95.853401 -132.298996 37.098099 39.014099 -0.321076 0.086122 0.047045 0.017960 -126.971001 -2.000000 2.000000 0.000000 94.643501 28.512800 -166.389999 -82.353996 0.233040 0.135509 -0.085841 0.090295 -167.048996 -31.686316 8.329599 -8.884245 26.486723 2.323440 2.197852 -15.882292 8.201936 4.057157 -20.366302 4.473227 7.473450 -1.529986 0.596619 -0.702551 5.349194 -6.788506 -1.923055 
9.267522 44.702301 17.328775 21.055201 -4.841040 -9.566640 -13.112700 -4.089110 3.933470 18.566200 -5.133640 1.866910 37.382519 -17.848173 -2.125829 22.680201 0.841046 2.381480 2.000000 -2.000000 0.000000 95.892303 -132.395996 36.883099 38.769901 -0.321442 0.085669 0.047155 0.018580 -126.746002 -2.000000 2.000000 0.000000 94.202003 27.252300 -166.061005 -83.086502 0.231306 0.135730 -0.085472 0.089656 -166.785004 -31.570045 8.308107 -9.093962 26.485542 2.337985 2.201126 -15.919787 8.117498 4.014353 -20.199490 4.571527 7.151650 -1.298406 0.516673 -0.709698 5.072353 -6.802026 -1.924496 
9.237190 44.705513 17.366186 20.935499 -5.073170 -8.890890 -12.972800 -4.105300 3.526910 18.762699 -4.987800 1.659330 37.413082 -17.506414 -2.074392 22.642099 0.961627 2.392170 2.000000 -2.000000 0.000000 95.910400 -132.404999 36.189701 38.555099 -0.321762 0.085269 0.047332 0.019548 -126.393997 -2.000000 2.000000 0.000000 93.535202 25.405300 -165.490005 -84.932198 0.226926 0.136190 -0.085663 0.089988 -166.921997 -31.541462 8.205686 -9.703528 26.406376 2.338046 2.183186 -15.913422 8.035069 3.956935 -19.893625 4.591173 6.438809 -1.364483 0.535326 -0.713094 4.896481 -6.831101 -1.966097 
9.221788 44.713749 17.405615 20.848301 -5.386770 -8.073060 -12.695800 -4.135020 3.052340 19.194099 -4.949780 1.415970 37.308231 -17.291191 -1.919399 22.555099 1.073420 2.427950 2.000000 -2.000000 0.000000 95.878799 -132.197998 35.425800 38.408600 -0.321980 0.084995 0.047489 0.020381 -126.092003 -2.000000 2.000000 0.000000 92.672897 23.079800 -164.962006 -88.037598 0.219531 0.136645 -0.086172 0.090862 -167.283005 -31.528973 8.099796 -10.585111 26.221958 2.316692 2.182056 -15.833866 7.983656 3.910758 -19.532118 4.591877 5.570088 -1.623618 0.626196 -0.697830 4.871324 -6.875131 -2.065071 
9.201039 44.724274 17.442913 20.799200 -5.653620 -7.328740 -12.386900 -4.131410 2.637850 19.684299 -4.872480 1.196880 37.100750 -17.306808 -1.774878 22.438000 1.092940 2.470990 2.000000 -2.000000 0.000000 95.837601 -131.893997 34.869801 38.320702 -0.322110 0.084831 0.047608 0.020999 -125.866997 -2.000000 2.000000 0.000000 91.761803 20.374001 -164.656006 -91.807098 0.210846 0.117131 -0.087305 0.092766 -168.074005 -31.623598 7.962787 -11.352045 26.211786 2.321236 2.183230 -15.821452 7.911211 3.859223 -19.398109 4.675313 4.753223 -1.508673 0.546044 -0.670755 4.695629 -6.875845 -2.035788 
9.173686 44.734554 17.476501 20.736799 -5.820570 -6.691550 -12.134900 -4.102380 2.293580 20.086300 -4.706870 1.024790 36.870651 -17.447437 -1.602249 22.330500 1.084580 2.534230 2.000000 -2.000000 0.000000 95.884903 -131.658997 34.479599 38.281601 -0.322168 0.084757 0.047677 0.021348 -125.739998 -2.000000 2.000000 0.000000 90.929100 17.453699 -164.496994 -95.615700 0.202426 0.116585 -0.088900 0.095348 -169.158005 -31.653486 7.818398 -11.951618 26.131126 2.334700 2.158133 -15.804711 7.873658 3.803708 -19.143812 4.633412 4.099512 -1.679641 0.593253 -0.650257 4.674548 -6.871587 -2.086975 
